<?xml version="1.0" encoding="UTF-8"?>
<svg xmlns="http://www.w3.org/2000/svg" version="1.1" viewBox="0 0 512 512">
  <g>
    <g id="_レイヤー_1" data-name="レイヤー_1">
      <g id="_レイヤー_1-2" data-name="_レイヤー_1">
        <path d="M256.1,131.3c-69,0-124.6,55.6-124.6,124.6s55.6,124.6,124.6,124.6,124.6-55.6,124.6-124.6-55.6-124.6-124.6-124.6ZM256.1,336.9c-44.6,0-81-36.3-81-81s36.3-81,81-81,81,36.3,81,81-36.4,81-81,81h0ZM414.8,126.2c0,16.2-13,29.1-29.1,29.1s-29.1-13-29.1-29.1,13-29.1,29.1-29.1,29.1,13,29.1,29.1ZM497.3,155.7c-1.8-38.9-10.7-73.4-39.2-101.8-28.4-28.4-62.9-37.3-101.8-39.2-40.1-2.3-160.4-2.3-200.5,0-38.8,1.8-73.3,10.7-101.8,39.1S16.7,116.7,14.8,155.6c-2.3,40.1-2.3,160.4,0,200.5,1.8,38.9,10.7,73.4,39.2,101.8,28.5,28.4,62.9,37.3,101.8,39.2,40.1,2.3,160.4,2.3,200.5,0,38.9-1.8,73.4-10.7,101.8-39.2,28.4-28.4,37.3-62.9,39.2-101.8,2.3-40.1,2.3-160.2,0-200.4h0ZM445.5,399.1c-8.5,21.3-24.8,37.6-46.2,46.2-32,12.7-107.9,9.8-143.2,9.8s-111.3,2.8-143.2-9.8c-21.3-8.5-37.6-24.8-46.2-46.2-12.7-32-9.8-107.9-9.8-143.2s-2.8-111.3,9.8-143.2c8.5-21.3,24.8-37.6,46.2-46.2,32-12.7,107.9-9.8,143.2-9.8s111.3-2.8,143.2,9.8c21.3,8.5,37.6,24.8,46.2,46.2,12.7,32,9.8,107.9,9.8,143.2s2.9,111.3-9.8,143.2Z"/>
      </g>
    </g>
  </g>
</svg>