<?xml version="1.0" encoding="UTF-8"?>
<svg xmlns="http://www.w3.org/2000/svg" version="1.1" viewBox="0 0 512 512">
  <g>
    <g id="_レイヤー_1" data-name="レイヤー_1">
      <g id="_レイヤー_1-2" data-name="_レイヤー_1">
        <path d="M175.6,394.4c0,2-2.3,3.5-5.1,3.5-3.2.3-5.5-1.3-5.5-3.5s2.3-3.5,5.1-3.5c2.9-.3,5.5,1.3,5.5,3.5ZM145.1,390c-.7,2,1.3,4.2,4.2,4.8,2.5,1,5.5,0,6.1-2s-1.3-4.2-4.2-5.1c-2.5-.7-5.4.3-6.1,2.3h0ZM188.4,388.3c-2.8.7-4.8,2.5-4.5,4.8.3,2,2.8,3.2,5.8,2.5,2.8-.7,4.8-2.5,4.5-4.5-.3-1.9-2.9-3.1-5.8-2.8ZM252.9,12.9C117,12.9,13,116.1,13,252s68.4,201.7,166.1,234.4c12.5,2.3,17-5.5,17-11.9s-.3-39.6-.3-60.2c0,0-68.6,14.7-83-29.2,0,0-11.2-28.5-27.2-35.9,0,0-22.4-15.4,1.6-15.1,0,0,24.4,2,37.8,25.3,21.5,37.8,57.4,26.9,71.4,20.5,2.3-15.7,8.6-26.6,15.7-33-54.8-6.1-110-14-110-108.3s7.4-40.5,23.1-57.7c-2.5-6.4-10.9-32.6,2.5-66.5,20.5-6.4,67.6,26.5,67.6,26.5,19.6-5.5,40.7-8.3,61.5-8.3s41.9,2.8,61.5,8.3c0,0,47.1-32.9,67.6-26.5,13.4,34,5.1,60.2,2.5,66.5,15.7,17.3,25.3,30.9,25.3,57.7,0,94.6-57.7,102.1-112.5,108.3,9,7.7,16.7,22.4,16.7,45.5,0,33-.3,73.9-.3,81.9s4.5,14.1,17,11.9c98-32.5,164.4-125.5,164.4-234.2S388.8,12.9,252.9,12.9ZM108.2,350.8c-1.3,1-1,3.2.7,5.1,1.6,1.6,3.8,2.3,5.1,1,1.3-1,1-3.2-.7-5.1-1.6-1.6-3.8-2.3-5.1-1ZM97.7,342.9c-.7,1.3.3,2.8,2.3,3.8,1.6,1,3.5.7,4.2-.7.7-1.3-.3-2.8-2.3-3.8-2-.6-3.5-.3-4.2.7ZM129.4,377.8c-1.6,1.3-1,4.2,1.3,6.1,2.3,2.3,5.1,2.5,6.4,1,1.3-1.3.7-4.2-1.3-6.1-2.2-2.3-5.1-2.5-6.4-1ZM118.2,363.4c-1.6,1-1.6,3.5,0,5.8,1.6,2.3,4.2,3.2,5.5,2.3,1.6-1.3,1.6-3.8,0-6.1-1.4-2.3-3.9-3.2-5.5-2h0Z"/>
      </g>
    </g>
  </g>
</svg>