<?xml version="1.0" encoding="UTF-8"?>
<svg xmlns="http://www.w3.org/2000/svg" version="1.1" viewBox="0 0 512 512">
  <g>
    <g id="_レイヤー_1" data-name="レイヤー_1">
      <g id="_レイヤー_1-2" data-name="_レイヤー_1">
        <path d="M53.5,259.5c-19.1,10.9-17.3,39.9,3,48.3l118.4,49.3v87.2c0,15.2,12.4,27.6,27.6,27.6s15.9-3.6,21.2-10l52.3-62.7,104.6,43.5c15.9,6.7,34.5-3.8,37.1-20.8l54-350.9c1.6-10.2-2.9-20.5-11.4-26.3-8.6-5.8-19.7-6.3-28.7-1.2L53.5,259.5h0ZM97.5,281L385.8,116.4l-185.4,207,1,.8-103.9-43.2h0ZM380.4,398.9l-140.7-58.6,180.8-201.8-40.1,260.5h0Z"/>
      </g>
    </g>
  </g>
</svg>