<?xml version="1.0" encoding="UTF-8"?>
<svg xmlns="http://www.w3.org/2000/svg" version="1.1" viewBox="0 0 512 512">
  <g>
    <g id="_レイヤー_1" data-name="レイヤー_1">
      <g id="_レイヤー_1-2" data-name="_レイヤー_1">
        <path d="M500.4,132.9c-5.9-22.2-23.1-39.5-45.1-45.4-39.8-10.7-199.3-10.7-199.3-10.7,0,0-159.5,0-199.3,10.7-22,5.9-39.2,23.2-45.1,45.4C1,172.9,1,256.4,1,256.4c0,0,0,83.5,10.6,123.6,5.9,22.2,23.1,38.8,45.1,44.7,39.8,10.7,199.3,10.7,199.3,10.7,0,0,159.5,0,199.3-10.7,22-5.9,39.2-22.6,45.1-44.7,10.6-40,10.6-123.6,10.6-123.6,0,0,0-83.5-10.6-123.6h0ZM203.9,332.2v-151.7l133.2,75.9-133.2,75.9h0Z"/>
      </g>
    </g>
  </g>
</svg>